<svg xmlns="http://www.w3.org/2000/svg" xmlns:xlink="http://www.w3.org/1999/xlink" width="835" zoomAndPan="magnify" viewBox="0 0 626.25 374.999991" height="500" preserveAspectRatio="xMidYMid meet" version="1.0"><defs><g/></defs><g fill="#cb53bb" fill-opacity="1"><g transform="translate(415.057843, 278.772994)"><g><path d="M 9.90625 -144.515625 L 44.59375 -144.515625 L 74.9375 -101.375 L 105.703125 -144.515625 L 139.96875 -144.515625 L 92.28125 -78.046875 L 148.4375 0 L 113.75 0 L 74.53125 -53.890625 L 35.515625 0 L 1.234375 0 L 57.59375 -77.828125 Z M 9.90625 -144.515625 "/></g></g></g><g fill="#cb53bb" fill-opacity="1"><g transform="translate(123.574917, 278.772994)"><g><path d="M 45.625 0 L 15.890625 0 L 15.890625 -144.515625 L 121.8125 -144.515625 L 121.8125 -117.890625 L 45.625 -117.890625 L 45.625 -88.5625 L 104.46875 -88.5625 L 104.46875 -62.34375 L 45.625 -62.34375 Z M 45.625 0 "/></g></g></g><g fill="#cb53bb" fill-opacity="1"><g transform="translate(6.376936, 148.898525)"><g><path d="M 63.796875 2.890625 C 42.046875 2.890625 23.738281 -2.269531 8.875 -12.59375 L 8.875 -43.5625 C 14.9375 -38.332031 22.921875 -33.789062 32.828125 -29.9375 C 42.867188 -26.21875 52.78125 -24.359375 62.5625 -24.359375 C 70.675781 -24.359375 77.347656 -25.835938 82.578125 -28.796875 C 87.804688 -31.753906 90.421875 -35.847656 90.421875 -41.078125 C 90.421875 -46.722656 87.945312 -50.71875 83 -53.0625 C 80.925781 -54.300781 78.171875 -55.539062 74.734375 -56.78125 L 69.78125 -58.421875 L 58.21875 -61.9375 L 47.484375 -65.453125 C 45.972656 -65.859375 42.738281 -67.023438 37.78125 -68.953125 C 33.507812 -70.609375 30.410156 -72.054688 28.484375 -73.296875 C 21.328125 -78.242188 16.785156 -82.441406 14.859375 -85.890625 C 11.554688 -92.492188 9.90625 -99.234375 9.90625 -106.109375 C 9.90625 -118.910156 14.789062 -128.960938 24.5625 -136.265625 C 34.332031 -143.691406 47.613281 -147.40625 64.40625 -147.40625 C 81.34375 -147.40625 97.101562 -143.414062 111.6875 -135.4375 L 111.6875 -106.53125 C 96.957031 -115.613281 81.335938 -120.15625 64.828125 -120.15625 C 48.453125 -120.15625 40.265625 -115.40625 40.265625 -105.90625 C 40.265625 -101.78125 42.804688 -98.476562 47.890625 -96 C 50.921875 -94.34375 54.847656 -92.898438 59.671875 -91.671875 C 66.140625 -89.878906 71.367188 -88.363281 75.359375 -87.125 C 87.328125 -83.40625 97.785156 -78.378906 106.734375 -72.046875 C 116.367188 -65.304688 121.1875 -55.257812 121.1875 -41.90625 C 121.1875 -28.007812 115.75 -17.066406 104.875 -9.078125 C 94 -1.097656 80.304688 2.890625 63.796875 2.890625 Z M 63.796875 2.890625 "/></g></g></g><g fill="#e4e2dd" fill-opacity="1"><g transform="translate(-1.115845, 146.504199)"><g><path d="M 40.921875 1.859375 C 26.972656 1.859375 15.234375 -1.453125 5.703125 -8.078125 L 5.703125 -27.953125 C 9.578125 -24.597656 14.695312 -21.679688 21.0625 -19.203125 C 27.507812 -16.816406 33.867188 -15.625 40.140625 -15.625 C 45.347656 -15.625 49.628906 -16.570312 52.984375 -18.46875 C 56.335938 -20.375 58.015625 -23.003906 58.015625 -26.359375 C 58.015625 -29.972656 56.425781 -32.535156 53.25 -34.046875 C 51.925781 -34.835938 50.160156 -35.628906 47.953125 -36.421875 L 44.765625 -37.484375 L 37.359375 -39.734375 L 30.46875 -41.984375 C 29.488281 -42.253906 27.410156 -43.003906 24.234375 -44.234375 C 21.503906 -45.296875 19.519531 -46.222656 18.28125 -47.015625 C 13.6875 -50.203125 10.769531 -52.894531 9.53125 -55.09375 C 7.414062 -59.332031 6.359375 -63.660156 6.359375 -68.078125 C 6.359375 -76.296875 9.492188 -82.742188 15.765625 -87.421875 C 22.035156 -92.191406 30.554688 -94.578125 41.328125 -94.578125 C 52.179688 -94.578125 62.289062 -92.015625 71.65625 -86.890625 L 71.65625 -68.34375 C 62.207031 -74.175781 52.1875 -77.09375 41.59375 -77.09375 C 31.082031 -77.09375 25.828125 -74.046875 25.828125 -67.953125 C 25.828125 -65.296875 27.460938 -63.175781 30.734375 -61.59375 C 32.671875 -60.53125 35.1875 -59.601562 38.28125 -58.8125 C 42.425781 -57.664062 45.78125 -56.691406 48.34375 -55.890625 C 56.03125 -53.503906 62.742188 -50.28125 68.484375 -46.21875 C 74.660156 -41.894531 77.75 -35.453125 77.75 -26.890625 C 77.75 -17.972656 74.257812 -10.953125 67.28125 -5.828125 C 60.3125 -0.703125 51.523438 1.859375 40.921875 1.859375 Z M 40.921875 1.859375 "/></g></g></g><g fill="#e4e2dd" fill-opacity="1"><g transform="translate(88.154203, 146.504199)"><g><path d="M 29.265625 0 L 10.203125 0 L 10.203125 -92.71875 L 50.734375 -92.71875 C 60.710938 -92.71875 68.570312 -90.113281 74.3125 -84.90625 C 80.132812 -79.78125 83.046875 -73.066406 83.046875 -64.765625 C 83.046875 -56.378906 80.132812 -49.625 74.3125 -44.5 C 68.570312 -39.289062 60.710938 -36.6875 50.734375 -36.6875 L 29.265625 -36.6875 Z M 29.265625 -76.03125 L 29.265625 -52.984375 L 49.40625 -52.984375 C 54 -52.984375 57.570312 -53.972656 60.125 -55.953125 C 62.6875 -57.941406 63.96875 -60.789062 63.96875 -64.5 C 63.96875 -68.207031 62.6875 -71.054688 60.125 -73.046875 C 57.570312 -75.035156 54 -76.03125 49.40625 -76.03125 Z M 29.265625 -76.03125 "/></g></g></g><g fill="#e4e2dd" fill-opacity="1"><g transform="translate(181.397671, 146.504199)"><g><path d="M 79.734375 0 L 10.203125 0 L 10.203125 -92.71875 L 78.28125 -92.71875 L 78.28125 -75.625 L 29.265625 -75.625 L 29.265625 -57.75 L 68.75 -57.75 L 68.75 -40.921875 L 29.265625 -40.921875 L 29.265625 -17.09375 L 79.734375 -17.09375 Z M 79.734375 0 "/></g></g></g><g fill="#e4e2dd" fill-opacity="1"><g transform="translate(272.124638, 146.504199)"><g><path d="M 57.21875 1.859375 C 42.820312 1.859375 30.859375 -2.644531 21.328125 -11.65625 C 11.785156 -20.84375 7.015625 -32.410156 7.015625 -46.359375 C 7.015625 -60.484375 11.738281 -72.050781 21.1875 -81.0625 C 30.726562 -90.070312 42.738281 -94.578125 57.21875 -94.578125 C 66.226562 -94.578125 74.394531 -92.632812 81.71875 -88.75 L 81.71875 -69.53125 C 74.570312 -74.300781 66.453125 -76.6875 57.359375 -76.6875 C 48.609375 -76.6875 41.234375 -73.816406 35.234375 -68.078125 C 29.398438 -62.429688 26.484375 -55.191406 26.484375 -46.359375 C 26.484375 -37.523438 29.488281 -30.238281 35.5 -24.5 C 41.414062 -18.851562 48.960938 -16.03125 58.140625 -16.03125 C 68.296875 -16.03125 76.773438 -18.722656 83.578125 -24.109375 L 83.578125 -4.90625 C 76.066406 -0.394531 67.28125 1.859375 57.21875 1.859375 Z M 57.21875 1.859375 "/></g></g></g><g fill="#e4e2dd" fill-opacity="1"><g transform="translate(367.752135, 146.504199)"><g><path d="M 29.796875 0 L 10.859375 0 L 10.859375 -92.71875 L 29.796875 -92.71875 Z M 29.796875 0 "/></g></g></g><g fill="#e4e2dd" fill-opacity="1"><g transform="translate(414.374182, 146.504199)"><g><path d="M 22.125 0 L 2.125 0 L 41.859375 -93.25 L 60.140625 -93.25 L 99.875 0 L 79.609375 0 L 70.46875 -21.453125 L 31.265625 -21.453125 Z M 50.859375 -69.40625 L 37.21875 -37.21875 L 64.375 -37.21875 Z M 50.859375 -69.40625 "/></g></g></g><g fill="#e4e2dd" fill-opacity="1"><g transform="translate(522.319278, 146.504199)"><g><path d="M 76.296875 0 L 10.203125 0 L 10.203125 -92.71875 L 29.265625 -92.71875 L 29.265625 -17.09375 L 76.296875 -17.09375 Z M 76.296875 0 "/></g></g></g><g fill="#e4e2dd" fill-opacity="1"><g transform="translate(-1.115845, 258.847906)"><g><path d="M 79.734375 0 L 10.203125 0 L 10.203125 -92.71875 L 78.28125 -92.71875 L 78.28125 -75.625 L 29.265625 -75.625 L 29.265625 -57.75 L 68.75 -57.75 L 68.75 -40.921875 L 29.265625 -40.921875 L 29.265625 -17.09375 L 79.734375 -17.09375 Z M 79.734375 0 "/></g></g></g><g fill="#e4e2dd" fill-opacity="1"><g transform="translate(89.611122, 258.847906)"><g><path d="M 29.265625 0 L 10.203125 0 L 10.203125 -92.71875 L 78.140625 -92.71875 L 78.140625 -75.625 L 29.265625 -75.625 L 29.265625 -56.828125 L 67.015625 -56.828125 L 67.015625 -40 L 29.265625 -40 Z M 29.265625 0 "/></g></g></g><g fill="#e4e2dd" fill-opacity="1"><g transform="translate(178.748724, 258.847906)"><g><path d="M 29.265625 0 L 10.203125 0 L 10.203125 -92.71875 L 78.140625 -92.71875 L 78.140625 -75.625 L 29.265625 -75.625 L 29.265625 -56.828125 L 67.015625 -56.828125 L 67.015625 -40 L 29.265625 -40 Z M 29.265625 0 "/></g></g></g><g fill="#e4e2dd" fill-opacity="1"><g transform="translate(267.886313, 258.847906)"><g><path d="M 79.734375 0 L 10.203125 0 L 10.203125 -92.71875 L 78.28125 -92.71875 L 78.28125 -75.625 L 29.265625 -75.625 L 29.265625 -57.75 L 68.75 -57.75 L 68.75 -40.921875 L 29.265625 -40.921875 L 29.265625 -17.09375 L 79.734375 -17.09375 Z M 79.734375 0 "/></g></g></g><g fill="#e4e2dd" fill-opacity="1"><g transform="translate(358.613268, 258.847906)"><g><path d="M 57.21875 1.859375 C 42.820312 1.859375 30.859375 -2.644531 21.328125 -11.65625 C 11.785156 -20.84375 7.015625 -32.410156 7.015625 -46.359375 C 7.015625 -60.484375 11.738281 -72.050781 21.1875 -81.0625 C 30.726562 -90.070312 42.738281 -94.578125 57.21875 -94.578125 C 66.226562 -94.578125 74.394531 -92.632812 81.71875 -88.75 L 81.71875 -69.53125 C 74.570312 -74.300781 66.453125 -76.6875 57.359375 -76.6875 C 48.609375 -76.6875 41.234375 -73.816406 35.234375 -68.078125 C 29.398438 -62.429688 26.484375 -55.191406 26.484375 -46.359375 C 26.484375 -37.523438 29.488281 -30.238281 35.5 -24.5 C 41.414062 -18.851562 48.960938 -16.03125 58.140625 -16.03125 C 68.296875 -16.03125 76.773438 -18.722656 83.578125 -24.109375 L 83.578125 -4.90625 C 76.066406 -0.394531 67.28125 1.859375 57.21875 1.859375 Z M 57.21875 1.859375 "/></g></g></g><g fill="#e4e2dd" fill-opacity="1"><g transform="translate(454.240765, 258.847906)"><g><path d="M 3.96875 -75.625 L 3.96875 -92.71875 L 81.71875 -92.71875 L 81.71875 -75.625 L 52.3125 -75.625 L 52.3125 0 L 33.25 0 L 33.25 -75.625 Z M 3.96875 -75.625 "/></g></g></g><g fill="#e4e2dd" fill-opacity="1"><g transform="translate(545.894855, 258.847906)"><g><path d="M 40.921875 1.859375 C 26.972656 1.859375 15.234375 -1.453125 5.703125 -8.078125 L 5.703125 -27.953125 C 9.578125 -24.597656 14.695312 -21.679688 21.0625 -19.203125 C 27.507812 -16.816406 33.867188 -15.625 40.140625 -15.625 C 45.347656 -15.625 49.628906 -16.570312 52.984375 -18.46875 C 56.335938 -20.375 58.015625 -23.003906 58.015625 -26.359375 C 58.015625 -29.972656 56.425781 -32.535156 53.25 -34.046875 C 51.925781 -34.835938 50.160156 -35.628906 47.953125 -36.421875 L 44.765625 -37.484375 L 37.359375 -39.734375 L 30.46875 -41.984375 C 29.488281 -42.253906 27.410156 -43.003906 24.234375 -44.234375 C 21.503906 -45.296875 19.519531 -46.222656 18.28125 -47.015625 C 13.6875 -50.203125 10.769531 -52.894531 9.53125 -55.09375 C 7.414062 -59.332031 6.359375 -63.660156 6.359375 -68.078125 C 6.359375 -76.296875 9.492188 -82.742188 15.765625 -87.421875 C 22.035156 -92.191406 30.554688 -94.578125 41.328125 -94.578125 C 52.179688 -94.578125 62.289062 -92.015625 71.65625 -86.890625 L 71.65625 -68.34375 C 62.207031 -74.175781 52.1875 -77.09375 41.59375 -77.09375 C 31.082031 -77.09375 25.828125 -74.046875 25.828125 -67.953125 C 25.828125 -65.296875 27.460938 -63.175781 30.734375 -61.59375 C 32.671875 -60.53125 35.1875 -59.601562 38.28125 -58.8125 C 42.425781 -57.664062 45.78125 -56.691406 48.34375 -55.890625 C 56.03125 -53.503906 62.742188 -50.28125 68.484375 -46.21875 C 74.660156 -41.894531 77.75 -35.453125 77.75 -26.890625 C 77.75 -17.972656 74.257812 -10.953125 67.28125 -5.828125 C 60.3125 -0.703125 51.523438 1.859375 40.921875 1.859375 Z M 40.921875 1.859375 "/></g></g></g><g fill="#e4e2dd" fill-opacity="1"><g transform="translate(-1.115845, 371.191613)"><g><path d="M 22.125 0 L 2.125 0 L 41.859375 -93.25 L 60.140625 -93.25 L 99.875 0 L 79.609375 0 L 70.46875 -21.453125 L 31.265625 -21.453125 Z M 50.859375 -69.40625 L 37.21875 -37.21875 L 64.375 -37.21875 Z M 50.859375 -69.40625 "/></g></g></g><g fill="#e4e2dd" fill-opacity="1"><g transform="translate(106.829263, 371.191613)"><g><path d="M 29.265625 0 L 10.203125 0 L 10.203125 -92.71875 L 53.109375 -92.71875 C 63.003906 -92.71875 70.773438 -90.15625 76.421875 -85.03125 C 82.160156 -80 85.03125 -73.421875 85.03125 -65.296875 C 85.03125 -59.117188 83.332031 -53.753906 79.9375 -49.203125 C 76.539062 -44.660156 71.835938 -41.460938 65.828125 -39.609375 L 94.4375 0 L 72.3125 0 L 45.296875 -37.484375 L 29.265625 -37.484375 Z M 29.265625 -76.03125 L 29.265625 -53.515625 L 52.046875 -53.515625 C 56.378906 -53.515625 59.757812 -54.484375 62.1875 -56.421875 C 64.613281 -58.367188 65.828125 -61.148438 65.828125 -64.765625 C 65.828125 -68.296875 64.613281 -71.054688 62.1875 -73.046875 C 59.757812 -75.035156 56.378906 -76.03125 52.046875 -76.03125 Z M 29.265625 -76.03125 "/></g></g></g><g fill="#e4e2dd" fill-opacity="1"><g transform="translate(209.476478, 371.191613)"><g><path d="M 3.96875 -75.625 L 3.96875 -92.71875 L 81.71875 -92.71875 L 81.71875 -75.625 L 52.3125 -75.625 L 52.3125 0 L 33.25 0 L 33.25 -75.625 Z M 3.96875 -75.625 "/></g></g></g><g fill="#e4e2dd" fill-opacity="1"><g transform="translate(301.130593, 371.191613)"><g><path d="M 29.796875 0 L 10.859375 0 L 10.859375 -92.71875 L 29.796875 -92.71875 Z M 29.796875 0 "/></g></g></g><g fill="#e4e2dd" fill-opacity="1"><g transform="translate(347.75264, 371.191613)"><g><path d="M 40.921875 1.859375 C 26.972656 1.859375 15.234375 -1.453125 5.703125 -8.078125 L 5.703125 -27.953125 C 9.578125 -24.597656 14.695312 -21.679688 21.0625 -19.203125 C 27.507812 -16.816406 33.867188 -15.625 40.140625 -15.625 C 45.347656 -15.625 49.628906 -16.570312 52.984375 -18.46875 C 56.335938 -20.375 58.015625 -23.003906 58.015625 -26.359375 C 58.015625 -29.972656 56.425781 -32.535156 53.25 -34.046875 C 51.925781 -34.835938 50.160156 -35.628906 47.953125 -36.421875 L 44.765625 -37.484375 L 37.359375 -39.734375 L 30.46875 -41.984375 C 29.488281 -42.253906 27.410156 -43.003906 24.234375 -44.234375 C 21.503906 -45.296875 19.519531 -46.222656 18.28125 -47.015625 C 13.6875 -50.203125 10.769531 -52.894531 9.53125 -55.09375 C 7.414062 -59.332031 6.359375 -63.660156 6.359375 -68.078125 C 6.359375 -76.296875 9.492188 -82.742188 15.765625 -87.421875 C 22.035156 -92.191406 30.554688 -94.578125 41.328125 -94.578125 C 52.179688 -94.578125 62.289062 -92.015625 71.65625 -86.890625 L 71.65625 -68.34375 C 62.207031 -74.175781 52.1875 -77.09375 41.59375 -77.09375 C 31.082031 -77.09375 25.828125 -74.046875 25.828125 -67.953125 C 25.828125 -65.296875 27.460938 -63.175781 30.734375 -61.59375 C 32.671875 -60.53125 35.1875 -59.601562 38.28125 -58.8125 C 42.425781 -57.664062 45.78125 -56.691406 48.34375 -55.890625 C 56.03125 -53.503906 62.742188 -50.28125 68.484375 -46.21875 C 74.660156 -41.894531 77.75 -35.453125 77.75 -26.890625 C 77.75 -17.972656 74.257812 -10.953125 67.28125 -5.828125 C 60.3125 -0.703125 51.523438 1.859375 40.921875 1.859375 Z M 40.921875 1.859375 "/></g></g></g><g fill="#e4e2dd" fill-opacity="1"><g transform="translate(437.0227, 371.191613)"><g><path d="M 3.96875 -75.625 L 3.96875 -92.71875 L 81.71875 -92.71875 L 81.71875 -75.625 L 52.3125 -75.625 L 52.3125 0 L 33.25 0 L 33.25 -75.625 Z M 3.96875 -75.625 "/></g></g></g></svg>